HIERARCHY
ROOT Hips
{
	OFFSET 0.000000 0.000000 0.000000
	CHANNELS 6 Xposition Yposition Zposition Xrotation Yrotation Zrotation
	JOINT LeftUpLeg_virtual
	{
		OFFSET 0.000000 0.000000 0.000000
		CHANNELS 3 Xrotation Yrotation Zrotation
		JOINT LeftUpLeg
		{
			OFFSET 11.394100 -6.187798 -0.413800
			CHANNELS 3 Xrotation Yrotation Zrotation
			JOINT LeftLeg
			{
				OFFSET 0.430247 -32.302673 3.732800
				CHANNELS 3 Xrotation Yrotation Zrotation
				JOINT LeftFoot
				{
					OFFSET -0.430247 -48.264931 -6.423300
					CHANNELS 3 Xrotation Yrotation Zrotation
					JOINT LeftToeBase
					{
						OFFSET 4.230900 -16.068199 23.438400
						CHANNELS 3 Xrotation Yrotation Zrotation
						JOINT LeftToe_End
						{
							OFFSET 4.510700 0.695400 19.974600
							CHANNELS 3 Xrotation Yrotation Zrotation
							End Site
							{
								OFFSET 0 0 0
							}
						}
					}
				}
			}
		}
	}
	JOINT RightUpLeg_virtual
	{
		OFFSET 0.000000 0.000000 0.000000
		CHANNELS 3 Xrotation Yrotation Zrotation
		JOINT RightUpLeg
		{
			OFFSET -11.333700 -6.187798 -0.413800
			CHANNELS 3 Xrotation Yrotation Zrotation
			JOINT RightLeg
			{
				OFFSET -0.430392 -32.302628 3.733000
				CHANNELS 3 Xrotation Yrotation Zrotation
				JOINT RightFoot
				{
					OFFSET 0.430392 -48.264973 -6.423500
					CHANNELS 3 Xrotation Yrotation Zrotation
					JOINT RightToeBase
					{
						OFFSET -4.230900 -16.068199 23.438400
						CHANNELS 3 Xrotation Yrotation Zrotation
						JOINT RightToe_End
						{
							OFFSET -4.510700 0.695400 19.974600
							CHANNELS 3 Xrotation Yrotation Zrotation
							End Site
							{
								OFFSET 0 0 0
							}
						}
					}
				}
			}
		}
	}
	JOINT Spine_virtual
	{
		OFFSET 0.000000 0.000000 0.000000
		CHANNELS 3 Xrotation Yrotation Zrotation
		JOINT Spine
		{
			OFFSET -0.002400 12.777504 0.315300
			CHANNELS 3 Xrotation Yrotation Zrotation
			JOINT Spine1
			{
				OFFSET -0.002067 5.816869 0.032633
				CHANNELS 3 Xrotation Yrotation Zrotation
				JOINT Spine1_split
				{
					OFFSET -0.002067 5.816869 0.032633
					CHANNELS 3 Xrotation Yrotation Zrotation
					JOINT Spine2
					{
						OFFSET -0.002067 5.816869 0.032633
						CHANNELS 3 Xrotation Yrotation Zrotation
						JOINT Neck_virtual
						{
							OFFSET 0.000000 0.000000 0.000000
							CHANNELS 3 Xrotation Yrotation Zrotation
							JOINT Neck
							{
								OFFSET -0.003700 21.199493 -0.826900
								CHANNELS 3 Xrotation Yrotation Zrotation
								JOINT Head
								{
									OFFSET 0.000000 20.442200 4.834800
									CHANNELS 3 Xrotation Yrotation Zrotation
									JOINT HeadTop_End
									{
										OFFSET 0.000000 34.668396 4.968400
										CHANNELS 3 Xrotation Yrotation Zrotation
										End Site
										{
											OFFSET 0 0 0
										}
									}
								}
							}
						}
						JOINT LeftShoulder_virtual
						{
							OFFSET 0.000000 0.000000 0.000000
							CHANNELS 3 Xrotation Yrotation Zrotation
							JOINT LeftShoulder
							{
								OFFSET 3.288150 8.794197 -1.372250
								CHANNELS 3 Xrotation Yrotation Zrotation
								JOINT LeftShoulder_split
								{
									OFFSET 3.288150 8.794197 -1.372250
									CHANNELS 3 Xrotation Yrotation Zrotation
									JOINT LeftArm
									{
										OFFSET 11.953299 -2.279007 -0.146200
										CHANNELS 3 Xrotation Yrotation Zrotation
										JOINT LeftForeArm
										{
											OFFSET 18.448900 0.000000 0.000000
											CHANNELS 3 Xrotation Yrotation Zrotation
											JOINT LeftHand
											{
												OFFSET 29.527798 0.000000 0.000000
												CHANNELS 3 Xrotation Yrotation Zrotation
												End Site
												{
													OFFSET 0 0 0
												}
											}
										}
									}
								}
							}
						}
						JOINT RightShoulder_virtual
						{
							OFFSET 0.000000 0.000000 0.000000
							CHANNELS 3 Xrotation Yrotation Zrotation
							JOINT RightShoulder
							{
								OFFSET -3.249400 8.794197 -1.372250
								CHANNELS 3 Xrotation Yrotation Zrotation
								JOINT RightShoulder_split
								{
									OFFSET -3.249400 8.794197 -1.372250
									CHANNELS 3 Xrotation Yrotation Zrotation
									JOINT RightArm
									{
										OFFSET -11.953299 -2.279007 -0.146200
										CHANNELS 3 Xrotation Yrotation Zrotation
										JOINT RightForeArm
										{
											OFFSET -18.448900 0.000000 0.000000
											CHANNELS 3 Xrotation Yrotation Zrotation
											JOINT RightHand
											{
												OFFSET -29.527802 0.000000 0.000000
												CHANNELS 3 Xrotation Yrotation Zrotation
												End Site
												{
													OFFSET 0 0 0
												}
											}
										}
									}
								}
							}
						}
					}
				}
			}
		}
	}
}
MOTION
Frames: 4
Frame Time: 0.03333333
9.858661 85.645981 1.307098 0.000000 0.000000 0.000000 9.312557 -0.916921 -10.683983 -58.063315 -9.839876 27.321653 49.544457 -1.606864 -3.870948 1.865440 1.328690 -13.472229 -0.596151 0.063891 0.680574 0.000000 0.000000 0.000000 10.034836 -1.352206 -11.347389 -43.952687 -23.262064 -0.520802 48.867548 5.964026 -0.618408 -17.871371 -15.746211 -10.455456 2.584888 -0.294808 -3.381633 0.000000 0.000000 0.000000 8.492292 0.416609 -11.739903 7.832669 -3.371866 -6.752847 5.382690 -1.760012 -6.268054 1.313520 0.904830 0.597594 0.000000 0.000000 0.000000 7.740543 -1.780283 -6.364109 -6.851881 0.342060 -6.795786 -29.630662 -12.586805 13.148089 0.000000 0.000000 0.000000 6.738387 -1.520669 -6.072637 0.906272 -5.062072 -7.625105 -0.842565 -4.081147 0.383901 -27.240850 7.849775 -19.371665 2.570887 -59.206525 2.364910 0.000000 0.000000 0.000000 6.498735 -1.886421 -6.074814 1.868909 -1.933031 4.205097 6.365773 4.023922 -3.071667 24.811434 -8.596816 81.199802 8.786008 80.423715 -7.779835 0.000000 0.000000 0.000000 
10.058011 84.502174 0.320496 0.000000 0.000000 0.000000 8.905139 -2.264733 -9.967156 -58.891865 -10.491823 27.007507 51.180376 -0.698419 -4.066231 1.982371 1.753088 -13.625266 0.057598 0.129319 0.775255 0.000000 0.000000 0.000000 9.528785 -2.399605 -10.651458 -45.999521 -21.749904 -0.182307 51.097154 5.129300 -0.615763 -18.280829 -16.179062 -10.768686 2.312559 -0.304751 -3.454983 0.000000 0.000000 0.000000 8.064606 -0.791596 -11.182816 8.700086 -2.984735 -6.288519 5.932609 -1.496369 -5.970212 1.379131 0.907921 0.641862 0.000000 0.000000 0.000000 8.032174 -1.548845 -6.085231 -5.898140 0.220548 -6.629831 -28.569645 -11.986909 12.828779 0.000000 0.000000 0.000000 7.142815 -1.351486 -5.959378 0.951365 -5.329016 -8.551112 -0.663603 -4.051681 0.583462 -24.351475 12.150090 -22.857240 2.117289 -56.811044 2.024952 0.000000 0.000000 0.000000 7.075338 -1.606755 -5.772006 1.867352 -0.791593 5.017745 6.000441 3.668341 -3.082246 21.816772 -5.519298 79.583896 6.280846 76.451981 -5.385533 0.000000 0.000000 0.000000 
10.136327 83.741104 -0.499695 0.000000 0.000000 0.000000 8.505240 -3.403521 -9.376133 -59.254985 -10.947437 26.776712 52.110631 0.387127 -4.281025 1.979150 2.196493 -13.601571 0.614834 0.198594 0.679929 0.000000 0.000000 0.000000 8.960471 -3.371306 -10.042443 -47.612354 -20.367846 0.173723 52.654427 4.308759 -0.567819 -18.301468 -16.458020 -10.767447 2.397014 -0.279605 -3.553042 0.000000 0.000000 0.000000 7.596576 -2.088667 -10.671462 9.383997 -2.678769 -5.939551 6.332119 -1.282702 -5.712027 1.412099 0.965178 0.502185 0.000000 0.000000 0.000000 8.181300 -1.367784 -5.821503 -5.107334 0.217646 -6.509262 -26.976563 -11.299891 12.664118 0.000000 0.000000 0.000000 7.382584 -1.210396 -5.867597 0.988240 -5.544525 -9.426639 -0.724778 -3.684551 0.821045 -21.431761 15.178164 -26.791359 1.563816 -53.433096 1.596869 0.000000 0.000000 0.000000 7.524857 -1.369266 -5.521047 1.799176 0.257766 5.829938 5.603735 3.422073 -2.999543 18.807580 -2.633600 77.753555 4.911749 72.733885 -4.159286 0.000000 0.000000 0.000000 
10.083789 83.388039 -1.131359 0.000000 0.000000 0.000000 8.030880 -4.350838 -8.918345 -59.158714 -11.272143 26.664572 52.452496 1.432980 -4.454355 2.000017 2.485448 -13.470415 0.991890 0.251186 0.455064 0.000000 0.000000 0.000000 8.405819 -4.260243 -9.567033 -48.675049 -19.107920 0.627400 53.366023 3.580497 -0.551607 -17.756564 -16.573580 -10.338297 2.469747 -0.220230 -3.705943 0.000000 0.000000 0.000000 7.078280 -3.468696 -10.214313 9.797269 -2.437626 -5.707292 6.529246 -1.125901 -5.509180 1.346491 1.117914 0.289596 0.000000 0.000000 0.000000 8.130454 -1.228214 -5.608150 -4.455964 0.261601 -6.418039 -24.874111 -10.660149 12.692441 0.000000 0.000000 0.000000 7.423580 -1.100608 -5.802137 1.012522 -5.629249 -10.241830 -0.908486 -3.243021 1.006501 -18.630444 16.832936 -30.788587 1.075746 -49.610000 1.214751 0.000000 0.000000 0.000000 7.777948 -1.170104 -5.349169 1.676826 1.155091 6.664718 5.378966 3.360128 -2.837890 15.830746 0.022934 75.941445 4.041499 69.313436 -3.435921 0.000000 0.000000 0.000000 
